<svg xmlns="http://www.w3.org/2000/svg" width="333.555" height="81.531" viewBox="0 0 333.555 81.531">
  <g id="Group_29904" data-name="Group 29904" transform="translate(-41 -407)">
    <path id="Path_43736" data-name="Path 43736" d="M6388.523,15872.367v.191c0,.284,0,.568,0,.853a52.8,52.8,0,0,1-27.758,45.771,20,20,0,0,0,2.561-2.164,19.756,19.756,0,0,0,5.8-14.437,33.005,33.005,0,1,1,19.393-30.93C6388.519,15871.891,6388.523,15872.127,6388.523,15872.367Z" transform="translate(-6280.689 -15431.53)" fill="#f68a40"/>
    <path id="Path_43737" data-name="Path 43737" d="M6372.964,15854.289a34.685,34.685,0,0,0-1.8-10.341,32.278,32.278,0,0,0-5.1-9.114,31.081,31.081,0,0,0-7.652-6.989,34.452,34.452,0,0,0-9.378-4.215l-2.5-.6c-.844-.137-1.7-.238-2.543-.359l-.636-.089c-.212-.021-.428-.019-.641-.029l-1.283-.056-1.282-.058c-.427.008-.854.045-1.281.065l-1.281.071a8.588,8.588,0,0,0-1.275.121l-2.53.4a35.523,35.523,0,0,0-4.9,1.452,31.818,31.818,0,0,0-8.867,5.032,33.474,33.474,0,0,0-6.862,7.562,30.521,30.521,0,0,0-4.135,9.354l-.33,1.243c-.112.414-.146.845-.224,1.266-.116.85-.32,1.689-.375,2.546l-.161,2.574c-.04.429,0,.859-.006,1.289s.02.86.05,1.29a32.476,32.476,0,0,0,7.5,18.969,31.6,31.6,0,0,0,37.968,8.315.552.552,0,0,1,.739.258.543.543,0,0,1,.055.217v.026a20.535,20.535,0,0,1-2.012,9.687,20.3,20.3,0,0,1-6.4,7.639l-.923-1.483a55.5,55.5,0,0,0,11.327-8.255c.818-.838,1.7-1.614,2.487-2.485l1.178-1.309c.395-.435.792-.867,1.146-1.336a52.752,52.752,0,0,0,4.144-5.706,51.915,51.915,0,0,0,5.815-12.888,33.76,33.76,0,0,0,.868-3.45c.228-1.164.5-2.323.622-3.506A57.586,57.586,0,0,0,6372.964,15854.289Zm.2,0a59.149,59.149,0,0,1-1.724,14.188,53.157,53.157,0,0,1-5.282,13.352,54.131,54.131,0,0,1-3.958,6.051c-.345.5-.743.953-1.133,1.415l-1.17,1.386c-.378.473-.815.892-1.23,1.331l-1.264,1.3a50.832,50.832,0,0,1-11.685,8.558l-.015.008a.871.871,0,0,1-.4.1h-.032a.875.875,0,0,1-.48-1.594,19.9,19.9,0,0,0,6.09-6.881,19.287,19.287,0,0,0,2.211-8.994l.795.5a34.589,34.589,0,0,1-21,1.938,34.194,34.194,0,0,1-18.169-10.643,33.288,33.288,0,0,1-8.384-19.49q-.108-1.308-.111-2.623v-.143a33.2,33.2,0,0,1,1-8.011,32.458,32.458,0,0,1,4.252-9.971,35.549,35.549,0,0,1,7.195-8.139,33.766,33.766,0,0,1,9.449-5.389,34.916,34.916,0,0,1,5.245-1.5l2.7-.4a9.7,9.7,0,0,1,1.357-.114l1.363-.062a32.8,32.8,0,0,1,10.753,1.4,33.32,33.32,0,0,1,17.182,12.467,35.244,35.244,0,0,1,4.8,9.493A37.88,37.88,0,0,1,6373.164,15854.289Z" transform="translate(-6265.23 -15413.452)" fill="#f47722"/>
    <path id="Path_43738" data-name="Path 43738" d="M7930.96,16104.617h2.582V16090.4h16.59v-2.115h-16.59v-11.168h17.689V16075H7930.96Z" transform="translate(-7807.109 -15655.02)" fill="#fff" stroke="#fff" stroke-miterlimit="10" stroke-width="1.5"/>
    <path id="Path_43739" data-name="Path 43739" d="M8646.27,16087.947H8629.2v-10.83h17.928V16075H8626.62v29.617h20.894l.383-2.117H8629.2v-12.436h17.066Z" transform="translate(-8467.297 -15655.02)" fill="#fff" stroke="#fff" stroke-miterlimit="10" stroke-width="1.5"/>
    <path id="Path_43740" data-name="Path 43740" d="M9355.09,16104.617h20.08l.479-2.117h-17.978V16075h-2.582Z" transform="translate(-9158.619 -15655.02)" fill="#fff" stroke="#fff" stroke-miterlimit="10" stroke-width="1.5"/>
    <path id="Path_43741" data-name="Path 43741" d="M10047,16104.617h2.581V16075H10047Z" transform="translate(-9815.246 -15655.02)" fill="#fff" stroke="#fff" stroke-miterlimit="10" stroke-width="1.5"/>
    <path id="Path_43742" data-name="Path 43742" d="M10448.589,16088.8h0c-1.674,3.64-4.446,6.135-9.9,6.135-8.558,0-12-6.684-12-13.03,0-6.389,3.49-13.115,11.808-13.115,5.785,0,8.606,2.538,10.137,6.388h2.582c-1.1-4.949-5.354-8.5-12.574-8.5-9.754,0-14.726,7.277-14.726,15.273,0,8.335,5.067,15.1,14.677,15.1,7.076,0,11-3.555,12.574-8.251Z" transform="translate(-10172.945 -15647.115)" fill="#fff" stroke="#fff" stroke-miterlimit="10" stroke-width="1.5"/>
    <path id="Path_43743" data-name="Path 43743" d="M11272.4,16104.617h2.58V16075h-2.58Z" transform="translate(-10978.16 -15655.02)" fill="#fff" stroke="#fff" stroke-miterlimit="10" stroke-width="1.5"/>
    <path id="Path_43744" data-name="Path 43744" d="M11613.635,16104.617h2.631v-27.5h11.279V16075H11602.4v2.117h11.234Z" transform="translate(-11291.334 -15655.02)" fill="#fff" stroke="#fff" stroke-miterlimit="10" stroke-width="1.5"/>
    <path id="Path_43745" data-name="Path 43745" d="M12296.872,16104.627v-11a1.168,1.168,0,0,1,.144-.635l12.479-17.981h-2.869c-3.586,5.119-9.466,13.793-10.9,15.992-1.434-2.2-7.267-10.957-10.613-15.992h-3.011l11.951,17.812a1.317,1.317,0,0,1,.19.678v11.127Z" transform="translate(-11936.373 -15655.031)" fill="#fff" stroke="#fff" stroke-miterlimit="10" stroke-width="1.5"/>
    <path id="Path_43746" data-name="Path 43746" d="M7962.333,16817.852a3.458,3.458,0,0,1-.849,1.42,2,2,0,0,1-1.44.521,2.976,2.976,0,0,1-.54-.053c-.179-.035-.353-.08-.521-.131l.109-1.121.479.152a1.781,1.781,0,0,0,.489.068.98.98,0,0,0,.516-.135,1.509,1.509,0,0,0,.389-.361,2.639,2.639,0,0,0,.275-.488c.077-.182.149-.363.21-.549l.758-2.143-3.369-9.285,1.2,0,2.744,7.781,2.695-7.773,1.148,0-4.3,12.09Zm11.346-7.461a5.593,5.593,0,0,1,.33-1.951,4.743,4.743,0,0,1,.9-1.539,4.065,4.065,0,0,1,1.384-1.008,4.5,4.5,0,0,1,3.52.006,4.209,4.209,0,0,1,1.387,1.01,4.784,4.784,0,0,1,.906,1.545,6.065,6.065,0,0,1-.006,3.9,4.674,4.674,0,0,1-.91,1.535,4.028,4.028,0,0,1-1.389,1.008,4.457,4.457,0,0,1-3.521-.006,3.883,3.883,0,0,1-1.381-1.01,4.673,4.673,0,0,1-.9-1.539A5.578,5.578,0,0,1,7973.679,16810.391Zm1.076,0a4.777,4.777,0,0,0,.223,1.469,3.5,3.5,0,0,0,.656,1.2,3.2,3.2,0,0,0,1.045.813,3.258,3.258,0,0,0,2.734,0,3.191,3.191,0,0,0,1.047-.809,3.539,3.539,0,0,0,.655-1.2,4.932,4.932,0,0,0,0-2.941,3.5,3.5,0,0,0-.651-1.2,3.2,3.2,0,0,0-1.044-.812,3.259,3.259,0,0,0-2.735,0,3.191,3.191,0,0,0-1.047.809,3.432,3.432,0,0,0-.66,1.2A4.812,4.812,0,0,0,7974.755,16810.393Zm22.929,2.051c0,.176,0,.385.02.629s.02.5.025.754.009.486.024.709.015.393.015.512l-1.077,0c-.015-.348-.019-.682-.024-1a3.115,3.115,0,0,0-.05-.619h-.051a3.183,3.183,0,0,1-1.084,1.309,2.9,2.9,0,0,1-1.766.547,3.269,3.269,0,0,1-1.586-.342,2.618,2.618,0,0,1-.973-.893,3.382,3.382,0,0,1-.472-1.27,8.323,8.323,0,0,1-.125-1.48l.008-5.5,1.077,0-.008,5.441a6.37,6.37,0,0,0,.089,1.082,3.163,3.163,0,0,0,.315.953,1.677,1.677,0,0,0,.627.676,1.991,1.991,0,0,0,1.05.25,2.756,2.756,0,0,0,1.128-.23,2.433,2.433,0,0,0,.919-.7,3.413,3.413,0,0,0,.614-1.184,5.566,5.566,0,0,0,.227-1.666l.007-4.619h1.082l-.01,6.639Zm8.779-4.023c0-.176,0-.385-.014-.635s-.02-.494-.024-.748-.015-.488-.025-.709-.02-.391-.02-.51h1.077c.015.346.024.682.029,1a3.384,3.384,0,0,0,.04.625,4.013,4.013,0,0,1,1.068-1.342,2.443,2.443,0,0,1,1.583-.514,2.106,2.106,0,0,1,.316.027c.1.018.2.041.311.068l-.124,1.186a1.163,1.163,0,0,0-.413-.086,2.808,2.808,0,0,0-1.215.246,2.381,2.381,0,0,0-.848.691,2.979,2.979,0,0,0-.5,1.033,4.78,4.78,0,0,0-.165,1.268l-.007,5.039h-1.082Zm25.8-8.443,1.082,0-.011,7.5h.036a3.163,3.163,0,0,1,1.083-1.309,2.917,2.917,0,0,1,1.761-.547,3.254,3.254,0,0,1,1.586.342,2.636,2.636,0,0,1,.962.893,3.658,3.658,0,0,1,.483,1.27,8.339,8.339,0,0,1,.131,1.48l-.008,5.5-1.076,0,.008-5.441a6.389,6.389,0,0,0-.09-1.088,3.14,3.14,0,0,0-.315-.947,1.752,1.752,0,0,0-.627-.676,2.007,2.007,0,0,0-1.055-.25,2.774,2.774,0,0,0-1.123.225,2.5,2.5,0,0,0-.919.7,3.419,3.419,0,0,0-.614,1.178,5.667,5.667,0,0,0-.227,1.672l-.006,4.619h-1.082Zm22.262,11.273c0,.455,0,.863.008,1.219s.009.691.024,1,.024.59.044.857.04.537.075.8h-1a9.7,9.7,0,0,1-.1-1.5h-.036a3.192,3.192,0,0,1-1.166,1.32,3.35,3.35,0,0,1-1.756.416,3.89,3.89,0,0,1-1.061-.148,2.68,2.68,0,0,1-.933-.482,2.473,2.473,0,0,1-.677-.852,2.791,2.791,0,0,1-.258-1.258,2.642,2.642,0,0,1,.493-1.684,3.053,3.053,0,0,1,1.195-.93,5.46,5.46,0,0,1,1.511-.395,12.686,12.686,0,0,1,1.414-.088l1.26,0v-.561a2.046,2.046,0,0,0-.661-1.719,2.659,2.659,0,0,0-1.673-.525,3.574,3.574,0,0,0-2.542,1.041l-.626-.822a3.789,3.789,0,0,1,1.476-.969,4.8,4.8,0,0,1,1.695-.326,3.539,3.539,0,0,1,2.412.791,3.245,3.245,0,0,1,.895,2.553Zm-2.163-.762a9.068,9.068,0,0,0-1.321.094,4.4,4.4,0,0,0-1.149.34,2.125,2.125,0,0,0-.822.639,1.747,1.747,0,0,0-.135,1.75,1.57,1.57,0,0,0,.438.539,1.947,1.947,0,0,0,.6.318,2.044,2.044,0,0,0,.673.115,3.192,3.192,0,0,0,1.424-.281,2.461,2.461,0,0,0,.894-.73,2.754,2.754,0,0,0,.461-1.02,5.483,5.483,0,0,0,.124-1.143v-.619Zm10.623-4.588,1.082,0,0,1.621h.036a2.964,2.964,0,0,1,.634-.834,3.807,3.807,0,0,1,.823-.576,3.941,3.941,0,0,1,.924-.34,4.357,4.357,0,0,1,.954-.105,4.228,4.228,0,0,1,1.755.361,4.173,4.173,0,0,1,1.386,1.012,4.736,4.736,0,0,1,.906,1.541,6.079,6.079,0,0,1-.006,3.9,4.657,4.657,0,0,1-.91,1.535,4.079,4.079,0,0,1-1.389,1.008,4.2,4.2,0,0,1-1.755.359,4.252,4.252,0,0,1-.954-.109,3.78,3.78,0,0,1-.923-.342,3.688,3.688,0,0,1-.821-.584,2.947,2.947,0,0,1-.631-.828h-.036l-.009,6.178-1.082,0Zm.968,4.621a4,4,0,0,0,.268,1.469,3.807,3.807,0,0,0,.738,1.2,3.447,3.447,0,0,0,1.1.813,3.161,3.161,0,0,0,1.367.3,3.1,3.1,0,0,0,1.368-.3,3.225,3.225,0,0,0,1.047-.809,3.557,3.557,0,0,0,.655-1.2,4.736,4.736,0,0,0,.226-1.467,4.791,4.791,0,0,0-.221-1.475,3.5,3.5,0,0,0-.652-1.2,3.227,3.227,0,0,0-1.045-.814,3.1,3.1,0,0,0-1.367-.3,3.14,3.14,0,0,0-1.368.3,3.455,3.455,0,0,0-1.1.809,3.79,3.79,0,0,0-.741,1.193A4.049,4.049,0,0,0,8063.953,16810.521Zm15.836-4.6,1.082,0,0,1.623h.036a2.956,2.956,0,0,1,.634-.834,3.659,3.659,0,0,1,.822-.576,3.863,3.863,0,0,1,.924-.34,4.191,4.191,0,0,1,4.1,1.266,4.753,4.753,0,0,1,.905,1.543,6.075,6.075,0,0,1-.005,3.9,4.7,4.7,0,0,1-.911,1.535,4.079,4.079,0,0,1-1.389,1.006,4.2,4.2,0,0,1-1.755.361,4.246,4.246,0,0,1-.954-.109,3.791,3.791,0,0,1-.923-.342,3.747,3.747,0,0,1-.82-.584,2.968,2.968,0,0,1-.632-.83h-.036l-.009,6.178h-1.082Zm.967,4.623a4.025,4.025,0,0,0,.269,1.469,3.806,3.806,0,0,0,.738,1.2,3.488,3.488,0,0,0,1.1.814,3.16,3.16,0,0,0,1.367.3,3.073,3.073,0,0,0,1.368-.3,3.191,3.191,0,0,0,1.047-.809,3.539,3.539,0,0,0,.655-1.2,4.769,4.769,0,0,0,.227-1.469,4.821,4.821,0,0,0-.222-1.475,3.506,3.506,0,0,0-.652-1.2,3.212,3.212,0,0,0-1.044-.812,3.07,3.07,0,0,0-1.367-.3,3.135,3.135,0,0,0-1.368.3,3.464,3.464,0,0,0-1.1.811,3.794,3.794,0,0,0-.741,1.193A4.051,4.051,0,0,0,8080.756,16810.547Zm18.4,7.5a3.479,3.479,0,0,1-.849,1.422,2.01,2.01,0,0,1-1.44.52,2.813,2.813,0,0,1-.541-.053,4.906,4.906,0,0,1-.52-.131l.108-1.121c.158.051.316.1.479.152a1.785,1.785,0,0,0,.49.068.96.96,0,0,0,.515-.135,1.492,1.492,0,0,0,.388-.361,2.641,2.641,0,0,0,.276-.488c.077-.182.149-.363.21-.551l.758-2.141-3.369-9.283h1.2l2.743,7.781,2.7-7.773,1.148,0-4.3,12.09Zm25.565-12.061,1.082,0,0,1.621h.036a2.972,2.972,0,0,1,.633-.832,3.809,3.809,0,0,1,1.747-.916,4.364,4.364,0,0,1,.954-.107,4.291,4.291,0,0,1,1.755.361,4.2,4.2,0,0,1,1.386,1.01,4.776,4.776,0,0,1,.906,1.543,6.084,6.084,0,0,1-.005,3.9,4.675,4.675,0,0,1-.911,1.535,4.056,4.056,0,0,1-1.39,1.008,4.375,4.375,0,0,1-2.709.25,3.86,3.86,0,0,1-.923-.34,3.77,3.77,0,0,1-.82-.586,2.949,2.949,0,0,1-.632-.828h-.036l-.009,6.178-1.082,0Zm.968,4.621a4,4,0,0,0,.268,1.469,3.829,3.829,0,0,0,.738,1.205,3.5,3.5,0,0,0,1.1.811,3.135,3.135,0,0,0,1.367.3,3.1,3.1,0,0,0,1.368-.3,3.232,3.232,0,0,0,1.048-.809,3.546,3.546,0,0,0,.654-1.2,4.934,4.934,0,0,0,0-2.943,3.523,3.523,0,0,0-.651-1.2,3.237,3.237,0,0,0-1.045-.811,3.069,3.069,0,0,0-1.367-.3,3.139,3.139,0,0,0-1.368.3,3.455,3.455,0,0,0-1.1.809,3.786,3.786,0,0,0-.741,1.2A4.02,4.02,0,0,0,8125.685,16810.611Zm16.262-10.473h1.077l-.022,15.119-1.076,0Zm16.395,11.264c0,.453,0,.861.009,1.219s.009.691.023,1,.025.588.045.857.04.537.075.8h-1.005a9.681,9.681,0,0,1-.1-1.5h-.037a3.2,3.2,0,0,1-1.165,1.32,3.352,3.352,0,0,1-1.756.416,3.893,3.893,0,0,1-1.061-.148,2.686,2.686,0,0,1-.933-.484,2.466,2.466,0,0,1-.678-.85,2.8,2.8,0,0,1-.258-1.26,2.656,2.656,0,0,1,.492-1.684,3.074,3.074,0,0,1,1.195-.928,5.4,5.4,0,0,1,1.512-.395,12.206,12.206,0,0,1,1.413-.088l1.26,0v-.562a2.042,2.042,0,0,0-.661-1.717,2.661,2.661,0,0,0-1.672-.525,3.564,3.564,0,0,0-2.542,1.039l-.626-.822a3.787,3.787,0,0,1,1.476-.967,4.757,4.757,0,0,1,1.694-.326,3.537,3.537,0,0,1,2.412.791,3.242,3.242,0,0,1,.895,2.553Zm-2.162-.764a9.071,9.071,0,0,0-1.321.1,4.394,4.394,0,0,0-1.149.338,2.164,2.164,0,0,0-.822.639,1.6,1.6,0,0,0-.308,1,1.572,1.572,0,0,0,.173.754,1.6,1.6,0,0,0,.437.539,1.96,1.96,0,0,0,.6.318,2.139,2.139,0,0,0,.673.115,3.186,3.186,0,0,0,1.423-.281,2.509,2.509,0,0,0,.895-.73,2.758,2.758,0,0,0,.46-1.02,5.36,5.36,0,0,0,.125-1.145v-.619Zm17.81,3.3a3.858,3.858,0,0,1-1.385,1.2,3.624,3.624,0,0,1-1.673.389,4.228,4.228,0,0,1-1.765-.363,3.943,3.943,0,0,1-1.382-1.012,4.683,4.683,0,0,1-.9-1.537,5.995,5.995,0,0,1,.005-3.9,4.762,4.762,0,0,1,.9-1.539,4.009,4.009,0,0,1,1.384-1.006,4.293,4.293,0,0,1,1.765-.355,3.568,3.568,0,0,1,1.7.422,4.538,4.538,0,0,1,1.392,1.182l-.869.719a3.844,3.844,0,0,0-1.024-.914,2.293,2.293,0,0,0-1.2-.332,3.074,3.074,0,0,0-1.368.3,3.2,3.2,0,0,0-1.047.809,3.447,3.447,0,0,0-.66,1.2,4.929,4.929,0,0,0,0,2.943,3.467,3.467,0,0,0,.656,1.2,3.2,3.2,0,0,0,1.045.813,3.1,3.1,0,0,0,1.367.3,2.344,2.344,0,0,0,1.25-.35,3.414,3.414,0,0,0,.981-.928Zm14.851-.359a3.8,3.8,0,0,1-1.558,1.518,4.544,4.544,0,0,1-2.047.455,3.966,3.966,0,0,1-1.724-.365,3.868,3.868,0,0,1-1.331-1.01,4.528,4.528,0,0,1-.854-1.537,6.176,6.176,0,0,1-.293-1.969,5.778,5.778,0,0,1,.309-1.922,4.67,4.67,0,0,1,.864-1.529,4,4,0,0,1,1.319-1.018,3.785,3.785,0,0,1,1.668-.367,3.628,3.628,0,0,1,2.906,1.354,4.309,4.309,0,0,1,.748,1.391,5.127,5.127,0,0,1,.248,1.582v.838l-6.985-.01a4.44,4.44,0,0,0,.136.969,3.568,3.568,0,0,0,.494,1.152,3.226,3.226,0,0,0,.963.959,2.764,2.764,0,0,0,1.555.406,3.17,3.17,0,0,0,1.6-.441,2.982,2.982,0,0,0,1.186-1.193Zm-.826-3.664a2.991,2.991,0,0,0-.223-1.156,3.137,3.137,0,0,0-.611-.953,3.022,3.022,0,0,0-.917-.652,2.686,2.686,0,0,0-1.122-.24,2.524,2.524,0,0,0-1.465.395,3.356,3.356,0,0,0-.93.922,3.9,3.9,0,0,0-.486,1.008,2.983,2.983,0,0,0-.149.67Zm11.725,1.7-1.077,0,.016-10.441h1.076Zm-1.408,2.879a1,1,0,0,1,.257-.687.788.788,0,0,1,.613-.275.8.8,0,0,1,.611.277,1,1,0,0,1,.249.686.962.962,0,0,1-.251.676.8.8,0,0,1-1.225,0A.971.971,0,0,1,8198.331,16814.5Z" transform="translate(-7833.57 -16343.028)" fill="#fff"/>
  </g>
</svg>
